<?xml version="1.0"?>
<svg xmlns="http://www.w3.org/2000/svg" xmlns:xlink="http://www.w3.org/1999/xlink" version="1.1" id="Capa_1" x="0px" y="0px" viewBox="0 0 512 512" style="enable-background:new 0 0 512 512;" xml:space="preserve" width="512px" height="512px" class=""><g><g>
	<g>
		<path d="M467,0H45C20.356,0,0.276,19.913,0.003,44.492C0.001,44.59,0,44.688,0,44.786V315v30c0,25.029,20.44,45,45,45h131.865    l-22.623,92H106c-8.284,0-15,6.716-15,15s6.716,15,15,15c12.843,0,289.129,0,300,0c8.284,0,15-6.716,15-15s-6.716-15-15-15    h-48.242l-22.623-92H467c24.435,0,45-19.809,45-45v-30V45C512,20.187,491.813,0,467,0z M185.135,482l22.623-92h96.483l22.624,92    H185.135z M482,345c0,8.271-6.729,15-15,15c-4.664,0-419.627,0-422,0c-8.271,0-15-6.729-15-15v-15h452V345z M482,300H30V45    c0-8.271,6.729-15,15-15h422c8.271,0,15,6.729,15,15V300z" data-original="#000000" class="active-path" data-old_color="#001EFF" fill="#2185D0"/>
	</g>
</g><g>
	<g>
		<path d="M407,60c-24.813,0-45,20.187-45,45c0,6.908,1.569,13.456,4.363,19.312l-60.896,60.121    C299.572,181.593,292.969,180,286,180c-6.939,0-13.514,1.581-19.389,4.398l-30.008-30.008C239.419,148.515,241,141.939,241,135    c0-24.813-20.187-45-45-45s-45,20.187-45,45c0,6.89,1.561,13.42,4.341,19.263l-30.827,30.192C118.608,181.601,111.987,180,105,180    c-24.813,0-45,20.187-45,45s20.187,45,45,45s45-20.187,45-45c0-6.89-1.561-13.42-4.341-19.263l30.827-30.192    C182.392,178.399,189.013,180,196,180c6.939,0,13.514-1.581,19.389-4.398l30.009,30.009C242.581,211.486,241,218.061,241,225    c0,24.813,20.187,45,45,45s45-20.187,45-45c0-6.908-1.569-13.456-4.363-19.312l60.896-60.121C393.428,148.407,400.031,150,407,150    c24.813,0,45-20.187,45-45S431.813,60,407,60z M105,240c-8.271,0-15-6.729-15-15s6.729-15,15-15s15,6.729,15,15    S113.271,240,105,240z M196,150c-8.271,0-15-6.729-15-15s6.729-15,15-15s15,6.729,15,15S204.271,150,196,150z M286,240    c-8.271,0-15-6.729-15-15s6.729-15,15-15s15,6.729,15,15S294.271,240,286,240z M407,120c-8.271,0-15-6.729-15-15s6.729-15,15-15    s15,6.729,15,15S415.271,120,407,120z" data-original="#000000" class="active-path" data-old_color="#001EFF" fill="#2185D0"/>
	</g>
</g></g> </svg>
